<svg id="Слой_1" data-name="Слой 1" xmlns="http://www.w3.org/2000/svg" viewBox="0 0 294.09 182.39"><title>FAB LAB logo</title><path d="M96.17,130l5.88-34c8,0,13.2,6.72,11.4,16.92C111.65,123.44,104.33,130,96.17,130Zm-27.24,0c-8.16,0-13.08-6.72-11.28-16.92,1.8-10.44,9.12-16.92,17.28-17ZM63.65,159.8H90.77l1.8-9.72c26.28-1.2,43.2-15.6,47-37s-8.16-35.88-34-37.08l1.68-9.48H80.21L78.53,76c-26.4,1.08-43.44,15.6-47.28,37.08s8.4,36,34.08,37Z" transform="translate(-29.23 -66.56)"/><path d="M177.4,124.64l14.28-31.56h1.2L196,124.64ZM134.92,156.2h28.32L169,143.72h28.68l1.56,12.48h28.32l-11-86H176.08Z" transform="translate(-29.23 -66.56)"/><path d="M264.27,137.24l2.88-16.2h15.24c6.72,0,10.32,3.36,9.36,8.16-.72,4.68-5.52,8-12.48,8Zm-30.48,19h44.4c23,0,37.92-10.92,40.8-27.12s-8-27-31.08-27h-17.4l1.92-10.92h47.16l3.72-21h-74.4Z" transform="translate(-29.23 -66.56)"/><path d="M29.23,248.94c26.76,0,41.64-10.32,48-34.56l7.92-30.48h16.68l-11.4,65h27.12l15.12-86H63.07L50.35,212.46c-2.88,11.4-7.44,15.48-17.52,15.48Z" transform="translate(-29.23 -66.56)"/><path d="M163.22,217.38l14.28-31.56h1.2l3.12,31.56Zm-42.48,31.56h28.32l5.76-12.48H183.5l1.56,12.48h28.32l-11-86H161.9Z" transform="translate(-29.23 -66.56)"/><path d="M247.7,230l2.88-16.2h15.24c6.72,0,10.32,3.36,9.36,8.16-.72,4.68-5.52,8-12.48,8Zm-30.48,19h44.4c23,0,37.92-10.92,40.8-27.12s-8-27-31.08-27h-17.4l1.92-10.92H303l3.72-21h-74.4Z" transform="translate(-29.23 -66.56)"/></svg>