<svg xmlns="http://www.w3.org/2000/svg" width="44.939" height="44.939" viewBox="0 0 44.939 44.939">
  <g id="Group_27" data-name="Group 27" transform="translate(-19400.5 -5252.5)">
    <path id="message-circle" d="M45.939,23.277a19.99,19.99,0,0,1-2.147,9.065,20.277,20.277,0,0,1-18.13,11.212A19.99,19.99,0,0,1,16.6,41.406L3,45.939l4.532-13.6a19.99,19.99,0,0,1-2.147-9.065A20.277,20.277,0,0,1,16.6,5.147,19.99,19.99,0,0,1,25.662,3h1.193A20.229,20.229,0,0,1,45.939,22.084Z" transform="translate(19398.5 5250.5)" fill="none" stroke="#fff" stroke-linecap="round" stroke-linejoin="round" stroke-width="3"/>
    <path id="phone" d="M22.111,17V20.02a2.011,2.011,0,0,1-2.192,2.011,19.9,19.9,0,0,1-8.678-3.087,19.609,19.609,0,0,1-6.034-6.034A19.9,19.9,0,0,1,2.12,4.192,2.011,2.011,0,0,1,4.121,2H7.138A2.011,2.011,0,0,1,9.149,3.73a12.912,12.912,0,0,0,.7,2.826A2.011,2.011,0,0,1,9.4,8.677L8.123,9.954a16.09,16.09,0,0,0,6.034,6.034l1.277-1.277a2.011,2.011,0,0,1,2.122-.453,12.912,12.912,0,0,0,2.826.7A2.011,2.011,0,0,1,22.111,17Z" transform="translate(19411.389 5263.5)" fill="none" stroke="#fff" stroke-linecap="round" stroke-linejoin="round" stroke-width="3"/>
  </g>
</svg>
